<?xml version="1.0" encoding="iso-8859-1"?>
<!-- Uploaded to: SVG Repo, www.svgrepo.com, Generator: SVG Repo Mixer Tools -->
<svg version="1.1" id="Layer_1" xmlns="http://www.w3.org/2000/svg" xmlns:xlink="http://www.w3.org/1999/xlink" 
	 viewBox="0 0 512 512" xml:space="preserve">
<rect x="334.979" y="83.064" style="fill:#FEDC3D;" width="54.468" height="54.468"/>
<rect x="68.085" y="83.064" style="fill:#FFF1B1;" width="288.681" height="54.468"/>
<path style="fill:#4D4D4D;" d="M389.447,8.169h-32.681v85.787h32.681c8.987,0,16.34-7.353,16.34-16.34V24.51
	C405.788,15.522,398.434,8.169,389.447,8.169z"/>
<path style="fill:#737373;" d="M373.107,24.51v53.106c0,8.987-7.353,16.34-16.34,16.34H68.085c-8.987,0-16.34-7.353-16.34-16.34
	V24.51c0-8.987,7.353-16.34,16.34-16.34h288.681C365.753,8.169,373.107,15.522,373.107,24.51z"/>
<path style="fill:#4D4D4D;" d="M229.311,49.021H84.425c-4.513,0-8.17-3.658-8.17-8.17s3.657-8.17,8.17-8.17h144.885
	c4.513,0,8.17,3.658,8.17,8.17S233.823,49.021,229.311,49.021z"/>
<rect x="334.979" y="201.532" style="fill:#FEDC3D;" width="54.468" height="54.468"/>
<rect x="68.085" y="201.532" style="fill:#FFF1B1;" width="288.681" height="54.468"/>
<path style="fill:#4D4D4D;" d="M389.447,126.637h-32.681v85.787h32.681c8.987,0,16.34-7.353,16.34-16.34v-53.106
	C405.788,133.991,398.434,126.637,389.447,126.637z"/>
<path style="fill:#737373;" d="M373.107,142.978v53.106c0,8.987-7.353,16.34-16.34,16.34H68.085c-8.987,0-16.34-7.353-16.34-16.34
	v-53.106c0-8.987,7.353-16.34,16.34-16.34h288.681C365.753,126.637,373.107,133.991,373.107,142.978z"/>
<path style="fill:#4D4D4D;" d="M229.311,167.49H84.425c-4.513,0-8.17-3.658-8.17-8.17s3.657-8.17,8.17-8.17h144.885
	c4.513,0,8.17,3.658,8.17,8.17S233.823,167.49,229.311,167.49z"/>
<rect x="334.979" y="320.001" style="fill:#FEDC3D;" width="54.468" height="54.468"/>
<rect x="68.085" y="320.001" style="fill:#FFF1B1;" width="288.681" height="54.468"/>
<path style="fill:#4D4D4D;" d="M389.447,245.106h-32.681v85.787h32.681c8.987,0,16.34-7.353,16.34-16.34v-53.106
	C405.788,252.459,398.434,245.106,389.447,245.106z"/>
<path style="fill:#737373;" d="M373.107,261.446v53.106c0,8.987-7.353,16.34-16.34,16.34H68.085c-8.987,0-16.34-7.353-16.34-16.34
	v-53.106c0-8.987,7.353-16.34,16.34-16.34h288.681C365.753,245.106,373.107,252.459,373.107,261.446z"/>
<g>
	<path style="fill:#4D4D4D;" d="M229.311,285.958H84.425c-4.513,0-8.17-3.658-8.17-8.17s3.657-8.17,8.17-8.17h144.885
		c4.513,0,8.17,3.658,8.17,8.17S233.823,285.958,229.311,285.958z"/>
	<path style="fill:#4D4D4D;" d="M389.447,363.574h-32.681v85.787h32.681c8.987,0,16.34-7.353,16.34-16.34v-53.107
		C405.788,370.927,398.434,363.574,389.447,363.574z"/>
</g>
<path style="fill:#737373;" d="M373.107,379.915v53.107c0,8.987-7.353,16.34-16.34,16.34H68.085c-8.987,0-16.34-7.353-16.34-16.34
	v-53.107c0-8.987,7.353-16.34,16.34-16.34h288.681C365.753,363.574,373.107,370.927,373.107,379.915z"/>
<path style="fill:#4D4D4D;" d="M209.702,404.426H84.425c-4.513,0-8.17-3.658-8.17-8.17s3.657-8.17,8.17-8.17h125.277
	c4.513,0,8.17,3.658,8.17,8.17S214.214,404.426,209.702,404.426z"/>
<path style="fill:#FE5F1A;" d="M351.319,285.957V503.83c60.166,0,108.936-48.771,108.936-108.936S411.485,285.957,351.319,285.957z"
	/>
<path style="fill:#FE834D;" d="M351.319,285.957c42.115,0,76.255,48.771,76.255,108.936S393.434,503.83,351.319,503.83
	c-60.166,0-108.936-48.771-108.936-108.936S291.154,285.957,351.319,285.957z"/>
<path style="fill:#FFFFFF;" d="M401.389,421.854l-26.961-26.961l26.961-26.961c6.382-6.382,6.382-16.727,0-23.109
	c-6.381-6.382-16.727-6.382-23.109,0l-26.961,26.961l-26.961-26.961c-6.382-6.381-16.727-6.381-23.109,0
	c-6.382,6.382-6.382,16.727,0,23.109l26.961,26.961l-26.961,26.961c-6.382,6.382-6.382,16.727,0,23.109s16.727,6.382,23.109,0
	l26.961-26.961l26.961,26.961c6.382,6.382,16.727,6.382,23.109,0C407.77,438.581,407.769,428.236,401.389,421.854z"/>
<circle cx="261.992" cy="40.851" r="8.17"/>
<circle cx="261.992" cy="159.319" r="8.17"/>
<path d="M225.01,322.724H68.085c-4.506,0-8.17-3.666-8.17-8.17v-53.106c0-4.505,3.665-8.17,8.17-8.17h321.362
	c4.506,0,8.17,3.666,8.17,8.17v2.729c0,4.512,3.657,8.17,8.17,8.17s8.17-3.658,8.17-8.17v-2.729c0-10.651-6.831-19.733-16.34-23.105
	v-19.151c9.509-3.373,16.34-12.455,16.34-23.105v-53.106c0-10.651-6.831-19.733-16.34-23.105v-19.151
	c9.509-3.373,16.34-12.455,16.34-23.105V24.511C413.958,10.996,402.962,0,389.447,0H68.085C54.569,0,43.574,10.996,43.574,24.511
	v53.106c0,10.651,6.831,19.733,16.34,23.105v19.151c-9.509,3.373-16.34,12.455-16.34,23.105v53.106
	c0,10.651,6.831,19.733,16.34,23.105v19.151c-9.509,3.373-16.34,12.455-16.34,23.105v53.106c0,10.651,6.831,19.733,16.34,23.105
	v19.151c-9.509,3.373-16.34,12.455-16.34,23.105v53.107c0,13.515,10.996,24.511,24.511,24.511h152.518c4.513,0,8.17-3.658,8.17-8.17
	s-3.657-8.17-8.17-8.17H68.085c-4.506,0-8.17-3.666-8.17-8.17v-53.107c0-4.505,3.665-8.17,8.17-8.17h145.114
	c4.513,0,8.17-3.658,8.17-8.17s-3.657-8.17-8.17-8.17H76.255v-16.34h148.756c4.513,0,8.17-3.658,8.17-8.17
	S229.523,322.724,225.01,322.724z M381.277,220.596v16.34H76.255v-16.34H381.277z M76.255,118.468v-16.34h305.022v16.34H76.255z
	 M59.914,24.511c0-4.505,3.665-8.17,8.17-8.17h321.362c4.506,0,8.17,3.666,8.17,8.17v53.106c0,4.505-3.665,8.17-8.17,8.17H68.085
	c-4.506,0-8.17-3.666-8.17-8.17V24.511z M59.914,142.979c0-4.505,3.665-8.17,8.17-8.17h321.362c4.506,0,8.17,3.666,8.17,8.17v53.106
	c0,4.505-3.665,8.17-8.17,8.17H68.085c-4.506,0-8.17-3.666-8.17-8.17V142.979z"/>
<circle cx="261.992" cy="277.788" r="8.17"/>
<path d="M351.319,277.787c-64.572,0-117.107,52.533-117.107,117.107S286.747,512,351.319,512s117.107-52.533,117.107-117.107
	S415.891,277.787,351.319,277.787z M351.319,495.66c-55.563,0-100.766-45.203-100.766-100.766s45.203-100.766,100.766-100.766
	s100.766,45.203,100.766,100.766S406.882,495.66,351.319,495.66z"/>
<path d="M414.345,356.379c0-6.547-2.55-12.703-7.179-17.332c-4.63-4.63-10.785-7.179-17.332-7.179s-12.702,2.549-17.332,7.179
	l-21.183,21.184l-21.183-21.183c-4.63-4.63-10.785-7.179-17.332-7.179s-12.702,2.549-17.331,7.179
	c-4.63,4.63-7.18,10.785-7.18,17.332s2.55,12.701,7.179,17.331l21.184,21.184l-21.184,21.184c-4.629,4.63-7.179,10.785-7.179,17.331
	c0,6.547,2.55,12.703,7.179,17.332c4.63,4.63,10.785,7.179,17.332,7.179s12.702-2.549,17.332-7.179l21.183-21.184l21.183,21.183
	c4.63,4.63,10.785,7.179,17.332,7.179s12.702-2.549,17.331-7.179c4.63-4.63,7.18-10.785,7.18-17.332s-2.55-12.701-7.179-17.331
	l-21.184-21.184l21.184-21.184C411.794,369.081,414.345,362.926,414.345,356.379z M395.611,362.156l-26.961,26.961
	c-1.532,1.532-2.392,3.61-2.392,5.777s0.861,4.245,2.392,5.777l26.961,26.961c1.544,1.544,2.393,3.596,2.393,5.778
	c0,2.182-0.85,4.233-2.393,5.777c-1.543,1.543-3.595,2.392-5.777,2.392s-4.234-0.85-5.777-2.393l-26.961-26.961
	c-1.596-1.596-3.688-2.393-5.778-2.393c-2.09,0-4.182,0.797-5.778,2.393l-26.961,26.961c-1.543,1.543-3.595,2.392-5.777,2.392
	c-2.182,0-4.234-0.85-5.778-2.393c-1.543-1.544-2.392-3.595-2.392-5.777s0.85-4.234,2.393-5.778l26.961-26.961
	c1.532-1.532,2.392-3.61,2.392-5.777c0-2.167-0.861-4.245-2.392-5.777l-26.961-26.961c-1.544-1.544-2.393-3.596-2.393-5.778
	s0.85-4.233,2.393-5.777c1.543-1.543,3.595-2.392,5.777-2.392c2.182,0,4.234,0.85,5.777,2.393l26.961,26.961
	c3.192,3.191,8.364,3.191,11.555,0l26.961-26.961c1.543-1.543,3.595-2.392,5.777-2.392c2.182,0,4.234,0.85,5.778,2.393
	c1.543,1.544,2.392,3.595,2.392,5.777C398.004,358.561,397.154,360.613,395.611,362.156z"/>
</svg>