<?xml version="1.0" encoding="iso-8859-1"?>
<!-- Uploaded to: SVG Repo, www.svgrepo.com, Generator: SVG Repo Mixer Tools -->
<svg height="800px" width="800px" version="1.1" id="Layer_1" xmlns="http://www.w3.org/2000/svg" xmlns:xlink="http://www.w3.org/1999/xlink" 
	 viewBox="0 0 512 512" xml:space="preserve">
<polygon style="fill:#EEEEEE;" points="405.787,449.362 405.787,117.106 330.542,62.638 373.106,449.362 "/>
<polygon style="fill:#FFFFFF;" points="373.106,449.362 373.106,117.106 296.851,8.17 51.745,8.17 51.745,449.362 "/>
<polygon style="fill:#DCDCDC;" points="405.787,117.106 296.851,8.17 296.851,117.106 "/>
<g>
	<path style="fill:#B9B9B9;" d="M337.702,193.362H119.83c-4.512,0-8.17-3.658-8.17-8.17s3.658-8.17,8.17-8.17h217.872
		c4.512,0,8.17,3.658,8.17,8.17S342.214,193.362,337.702,193.362z"/>
	<path style="fill:#B9B9B9;" d="M337.702,236.936H119.83c-4.512,0-8.17-3.658-8.17-8.17c0-4.512,3.658-8.17,8.17-8.17h217.872
		c4.512,0,8.17,3.658,8.17,8.17C345.872,233.278,342.214,236.936,337.702,236.936z"/>
	<path style="fill:#B9B9B9;" d="M228.766,280.511H119.83c-4.512,0-8.17-3.658-8.17-8.17c0-4.512,3.658-8.17,8.17-8.17h108.936
		c4.512,0,8.17,3.658,8.17,8.17C236.936,276.853,233.278,280.511,228.766,280.511z"/>
</g>
<path style="fill:#FE5F1A;" d="M351.319,285.957V503.83c60.165,0,108.936-48.771,108.936-108.936S411.485,285.957,351.319,285.957z"
	/>
<path style="fill:#FE834D;" d="M351.319,285.957c42.115,0,76.255,48.771,76.255,108.936S393.434,503.83,351.319,503.83
	c-60.165,0-108.936-48.771-108.936-108.936S291.154,285.957,351.319,285.957z"/>
<path style="fill:#FFFFFF;" d="M401.388,421.854l-26.961-26.961l26.961-26.961c6.381-6.382,6.381-16.727,0-23.109
	c-6.382-6.382-16.727-6.382-23.109,0l-26.961,26.961l-26.961-26.961c-6.381-6.382-16.727-6.382-23.109,0
	c-6.381,6.381-6.381,16.727,0,23.109l26.961,26.961l-26.961,26.961c-6.381,6.381-6.381,16.727,0,23.109
	c6.382,6.381,16.727,6.381,23.109,0l26.961-26.961l26.961,26.961c6.381,6.381,16.727,6.381,23.109,0
	C407.77,438.581,407.77,428.236,401.388,421.854z"/>
<path d="M220.602,441.191H59.915V16.34c37.32,0,191.422,0,228.766,0v100.766c0,4.512,3.658,8.17,8.17,8.17h100.766v138.9
	c0,4.512,3.658,8.17,8.17,8.17c4.512,0,8.17-3.658,8.17-8.17v-147.07c0-2.167-0.861-4.245-2.393-5.777L302.628,2.393
	C301.096,0.861,299.018,0,296.851,0H54.497c-4.096,0-5.476,0-7.655,1.634c-2.058,1.544-3.268,3.964-3.268,6.536v441.191
	c0,4.512,3.658,8.17,8.17,8.17h168.858c4.512,0,8.17-3.658,8.17-8.17C228.772,444.85,225.114,441.191,220.602,441.191z
	 M305.021,27.895l81.041,81.041h-81.041V27.895z"/>
<path d="M351.319,277.787c-64.573,0-117.106,52.533-117.106,117.106S286.746,512,351.319,512s117.106-52.533,117.106-117.106
	S415.892,277.787,351.319,277.787z M351.319,495.66c-55.563,0-100.766-45.203-100.766-100.766s45.203-100.766,100.766-100.766
	s100.766,45.203,100.766,100.766S406.882,495.66,351.319,495.66z"/>
<path d="M407.165,339.047c-4.63-4.63-10.785-7.179-17.332-7.179c-6.547,0-12.702,2.549-17.332,7.179l-21.183,21.183l-21.183-21.183
	c-4.63-4.63-10.785-7.179-17.332-7.179c-6.547,0-12.703,2.549-17.332,7.179c-9.557,9.557-9.557,25.107,0,34.664l21.183,21.183
	l-21.183,21.184c-9.557,9.557-9.557,25.107,0,34.664c4.63,4.63,10.785,7.179,17.332,7.179c6.547,0,12.702-2.549,17.332-7.179
	l21.183-21.184l21.183,21.183c4.63,4.63,10.785,7.179,17.332,7.179c6.547,0,12.703-2.549,17.332-7.179
	c9.557-9.557,9.557-25.107,0-34.663l-21.183-21.183l21.183-21.184C416.722,364.154,416.722,348.604,407.165,339.047z
	 M395.611,362.156l-26.961,26.961c-3.191,3.191-3.191,8.363,0,11.554l26.961,26.961c3.185,3.185,3.185,8.368,0,11.555
	c-1.544,1.544-3.595,2.393-5.778,2.393c-2.182,0-4.234-0.85-5.777-2.393l-26.961-26.961c-1.532-1.532-3.61-2.393-5.777-2.393
	c-2.167,0-4.245,0.861-5.777,2.393l-26.961,26.961c-1.544,1.544-3.595,2.393-5.777,2.393c-2.182,0-4.234-0.85-5.778-2.393
	c-3.185-3.185-3.185-8.368,0-11.555l26.961-26.961c3.191-3.191,3.191-8.363,0-11.554l-26.961-26.961
	c-3.185-3.185-3.185-8.368,0-11.555c1.544-1.544,3.595-2.393,5.778-2.393c2.182,0,4.234,0.85,5.777,2.393l26.961,26.961
	c1.532,1.532,3.61,2.393,5.777,2.393c2.167,0,4.245-0.861,5.777-2.393l26.961-26.961c1.544-1.544,3.595-2.393,5.777-2.393
	c2.182,0,4.234,0.85,5.778,2.393C398.797,353.788,398.797,358.971,395.611,362.156z"/>
</svg>